<svg width="12" height="11" viewBox="0 0 12 11" fill="none" xmlns="http://www.w3.org/2000/svg">
<path fill-rule="evenodd" clip-rule="evenodd" d="M0.75 8.125V2.875C0.75 1.42624 1.92624 0.25 3.375 0.25L8.625 0.25C10.0738 0.25 11.25 1.42624 11.25 2.875V8.125C11.25 9.57376 10.0738 10.75 8.625 10.75H3.375C1.92624 10.75 0.75 9.57376 0.75 8.125ZM3.39747 7.88081L4.92924 9.36376C4.83865 9.45728 4.74806 9.5508 4.65746 9.64457L2.63389 7.68547L4.65746 5.72636L4.92924 6.00717L3.39747 7.49012L9.08529 7.49012V7.88081L3.39747 7.88081ZM2.91471 3.50988L8.60253 3.50988L7.07076 4.99283L7.34253 5.27364C8.01698 4.62044 8.69142 3.96749 9.3661 3.31453L7.34253 1.35543L7.07076 1.63624L8.60253 3.11919L2.91471 3.11919V3.50988Z" fill="#667085"/>
</svg>
