<svg width="14" height="14" viewBox="0 0 14 14" fill="none" xmlns="http://www.w3.org/2000/svg">
<path d="M11.0802 2.70804C10.7225 2.59528 10.3205 2.54054 9.85607 2.51188C9.32522 2.47912 8.68011 2.47912 7.88865 2.47913H6.10218C5.16687 2.47912 4.43364 2.47912 3.84787 2.53482C3.25079 2.59158 2.7619 2.70929 2.33092 2.9734C1.8796 3.24997 1.50014 3.62942 1.22357 4.08075C1.21377 4.09673 1.20418 4.1128 1.19478 4.12895C1.23987 3.28712 1.35763 2.72957 1.66523 2.28818C1.8262 2.0572 2.02104 1.85407 2.2426 1.68625C2.92863 1.16663 3.90723 1.16663 5.86443 1.16663H8.99618C9.9804 1.16663 10.4725 1.16663 10.7783 1.48539C11.0131 1.73021 11.0676 2.08962 11.0802 2.70804Z" fill="#667085"/>
<path d="M1.59655 4.30934C1.16675 5.01071 1.16675 5.96546 1.16675 7.87496C1.16675 9.78446 1.16675 10.7392 1.59655 11.4406C1.83704 11.833 2.16701 12.163 2.55946 12.4035C3.26083 12.8333 4.21558 12.8333 6.12508 12.8333H7.87508C9.78458 12.8333 10.7393 12.8333 11.4407 12.4035C11.8332 12.163 12.1631 11.833 12.4036 11.4406C12.6859 10.98 12.7828 10.41 12.816 9.53217H9.12134C8.00109 9.53217 7.09294 8.62402 7.09294 7.50376C7.09294 6.3835 8.00109 5.47535 9.12135 5.47535H12.7621C12.7036 4.99255 12.5972 4.62524 12.4036 4.30934C12.1631 3.91688 11.8332 3.58692 11.4407 3.34643C11.329 3.27796 11.2108 3.2204 11.0834 3.17202C10.4109 2.91663 9.48042 2.91663 7.87508 2.91663H6.12508C4.21558 2.91663 3.26083 2.91663 2.55946 3.34643C2.16701 3.58692 1.83704 3.91688 1.59655 4.30934Z" fill="#667085"/>
<path fill-rule="evenodd" clip-rule="evenodd" d="M12.8205 6.35035H9.12135C8.48434 6.35035 7.96794 6.86675 7.96794 7.50376C7.96794 8.14077 8.48433 8.65717 9.12134 8.65717H12.8321C12.8334 8.41557 12.8334 8.15557 12.8334 7.87496C12.8334 7.28157 12.8334 6.78039 12.8205 6.35035ZM9.12135 7.06626C8.87972 7.06626 8.68385 7.26213 8.68385 7.50376C8.68385 7.74538 8.87972 7.94126 9.12135 7.94126H10.7123C10.9539 7.94126 11.1498 7.74538 11.1498 7.50376C11.1498 7.26213 10.9539 7.06626 10.7123 7.06626H9.12135Z" fill="#667085"/>
</svg>
