<svg width="14" height="15" viewBox="0 0 14 15" fill="none" xmlns="http://www.w3.org/2000/svg">
<path d="M2.3335 4.58325C2.3335 4.03965 2.3335 3.76785 2.4223 3.55345C2.54071 3.26759 2.76783 3.04047 3.0537 2.92206C3.2681 2.83325 3.5399 2.83325 4.0835 2.83325C4.62709 2.83325 4.89889 2.83325 5.11329 2.92206C5.39916 3.04047 5.62628 3.26759 5.74469 3.55345C5.8335 3.76785 5.8335 4.03965 5.8335 4.58325C5.8335 5.12685 5.8335 5.39865 5.74469 5.61305C5.62628 5.89892 5.39916 6.12604 5.11329 6.24445C4.89889 6.33325 4.62709 6.33325 4.0835 6.33325C3.5399 6.33325 3.2681 6.33325 3.0537 6.24445C2.76783 6.12604 2.54071 5.89892 2.4223 5.61305C2.3335 5.39865 2.3335 5.12685 2.3335 4.58325Z" fill="#667085"/>
<path d="M8.16683 4.58325C8.16683 4.03965 8.16683 3.76785 8.25564 3.55345C8.37405 3.26759 8.60117 3.04047 8.88703 2.92206C9.10143 2.83325 9.37323 2.83325 9.91683 2.83325C10.4604 2.83325 10.7322 2.83325 10.9466 2.92206C11.2325 3.04047 11.4596 3.26759 11.578 3.55345C11.6668 3.76785 11.6668 4.03965 11.6668 4.58325C11.6668 5.12685 11.6668 5.39865 11.578 5.61305C11.4596 5.89892 11.2325 6.12604 10.9466 6.24445C10.7322 6.33325 10.4604 6.33325 9.91683 6.33325C9.37323 6.33325 9.10143 6.33325 8.88703 6.24445C8.60117 6.12604 8.37405 5.89892 8.25564 5.61305C8.16683 5.39865 8.16683 5.12685 8.16683 4.58325Z" fill="#667085"/>
<path d="M2.3335 10.4166C2.3335 9.87299 2.3335 9.60119 2.4223 9.38679C2.54071 9.10092 2.76783 8.8738 3.0537 8.75539C3.2681 8.66659 3.5399 8.66659 4.0835 8.66659C4.62709 8.66659 4.89889 8.66659 5.11329 8.75539C5.39916 8.8738 5.62628 9.10092 5.74469 9.38679C5.8335 9.60119 5.8335 9.87299 5.8335 10.4166C5.8335 10.9602 5.8335 11.232 5.74469 11.4464C5.62628 11.7322 5.39916 11.9594 5.11329 12.0778C4.89889 12.1666 4.62709 12.1666 4.0835 12.1666C3.5399 12.1666 3.2681 12.1666 3.0537 12.0778C2.76783 11.9594 2.54071 11.7322 2.4223 11.4464C2.3335 11.232 2.3335 10.9602 2.3335 10.4166Z" fill="#667085"/>
<path d="M8.16683 10.4166C8.16683 9.87299 8.16683 9.60119 8.25564 9.38679C8.37405 9.10092 8.60117 8.8738 8.88703 8.75539C9.10143 8.66659 9.37323 8.66659 9.91683 8.66659C10.4604 8.66659 10.7322 8.66659 10.9466 8.75539C11.2325 8.8738 11.4596 9.10092 11.578 9.38679C11.6668 9.60119 11.6668 9.87299 11.6668 10.4166C11.6668 10.9602 11.6668 11.232 11.578 11.4464C11.4596 11.7322 11.2325 11.9594 10.9466 12.0778C10.7322 12.1666 10.4604 12.1666 9.91683 12.1666C9.37323 12.1666 9.10143 12.1666 8.88703 12.0778C8.60117 11.9594 8.37405 11.7322 8.25564 11.4464C8.16683 11.232 8.16683 10.9602 8.16683 10.4166Z" fill="#667085"/>
</svg>
