<svg width="24" height="24" viewBox="0 0 24 24" fill="none" xmlns="http://www.w3.org/2000/svg">
<path d="M13.4098 19.501C12.9955 19.501 12.6598 19.8368 12.6598 20.251C12.6598 20.6652 12.9955 21.001 13.4098 21.001H19.4098C19.824 21.001 20.1598 20.6652 20.1598 20.251C20.1598 19.8368 19.824 19.501 19.4098 19.501H13.4098Z" fill="#667085"/>
<path d="M14.2038 4.5755L14.2939 4.6275C15.072 5.07671 15.7209 5.4513 16.196 5.81795C16.6975 6.20494 17.0955 6.64914 17.2622 7.27132C17.4289 7.8935 17.3063 8.4772 17.0655 9.06309C16.8984 9.46976 16.6526 9.92674 16.3565 10.448L15.7212 10.0704L15.713 10.0656L8.78767 6.06728L8.14002 5.68557C8.44011 5.17448 8.71049 4.73795 8.97669 4.393C9.36368 3.89152 9.80788 3.49349 10.4301 3.32678C11.0522 3.16006 11.6359 3.28267 12.2218 3.52347C12.7769 3.7516 13.4257 4.12624 14.2038 4.5755Z" fill="#667085"/>
<path d="M7.38859 6.98384L3.91062 13.0077C3.61284 13.5225 3.37738 13.9296 3.29014 14.3926C3.20291 14.8556 3.27409 15.3204 3.36412 15.9083L3.38838 16.0672C3.55456 17.1586 3.69155 18.0581 3.89815 18.7403C4.11422 19.4537 4.44637 20.0712 5.09964 20.4484C5.75291 20.8256 6.45378 20.8045 7.17967 20.6349C7.87373 20.4727 8.72126 20.1416 9.74949 19.7398L9.89924 19.6814C10.4534 19.4654 10.8915 19.2946 11.2489 18.9876C11.6062 18.6805 11.841 18.2731 12.138 17.7578L15.6077 11.7479L14.9588 11.3623L8.02893 7.36127L7.38859 6.98384Z" fill="#667085"/>
</svg>
