<svg width="36" height="36" viewBox="0 0 36 36" fill="none" xmlns="http://www.w3.org/2000/svg">
<rect width="36" height="36" rx="12" fill="#FFF4F2"/>
<path fill-rule="evenodd" clip-rule="evenodd" d="M18.0002 11.3334C21.6821 11.3334 24.6668 14.3182 24.6668 18.0001C24.6668 21.682 21.6821 24.6667 18.0002 24.6667C14.3183 24.6667 11.3335 21.682 11.3335 18.0001C11.3335 14.3182 14.3183 11.3334 18.0002 11.3334ZM18.5002 20.6667C18.5002 20.9429 18.2763 21.1667 18.0002 21.1667C17.724 21.1667 17.5002 20.9429 17.5002 20.6667V16.0426C17.4907 16.05 17.481 16.0576 17.4712 16.0656C17.2561 16.2383 17.0004 16.4952 16.6205 16.8785L15.6886 17.8187C15.4942 18.0149 15.1777 18.0163 14.9815 17.8219C14.7854 17.6275 14.784 17.3109 14.9784 17.1148L15.9306 16.154C16.2849 15.7966 16.5803 15.4984 16.845 15.2859C17.1226 15.0629 17.4144 14.8933 17.7698 14.848C17.8463 14.8383 17.9232 14.8334 18.0002 14.8334C18.0771 14.8334 18.154 14.8383 18.2305 14.848C18.586 14.8933 18.8777 15.0629 19.1553 15.2859C19.42 15.4984 19.7155 15.7966 20.0697 16.154L21.022 17.1148C21.2163 17.3109 21.2149 17.6275 21.0188 17.8219C20.8227 18.0163 20.5061 18.0149 20.3117 17.8187L19.3798 16.8785C18.9999 16.4952 18.7443 16.2383 18.5292 16.0656C18.5193 16.0576 18.5096 16.05 18.5002 16.0426V20.6667Z" fill="#CB3A31"/>
</svg>
