<svg width="20" height="20" viewBox="0 0 20 20" fill="none" xmlns="http://www.w3.org/2000/svg">
<path fill-rule="evenodd" clip-rule="evenodd" d="M10 0C15.5228 0 20 4.47715 20 10C20 15.5228 15.5228 20 10 20C4.47715 20 0 15.5228 0 10C0 4.47715 4.47715 0 10 0ZM10.75 14C10.75 14.4142 10.4142 14.75 10 14.75C9.58579 14.75 9.25 14.4142 9.25 14V7.06379C9.23578 7.07487 9.22128 7.08635 9.20649 7.09823C8.88386 7.35733 8.50033 7.74268 7.93054 8.31758L6.53269 9.72796C6.24111 10.0222 5.76624 10.0243 5.47204 9.73269C5.17784 9.44111 5.17573 8.96624 5.46731 8.67204L6.89565 7.23089C7.42704 6.69472 7.87022 6.24753 8.26724 5.92869C8.68366 5.59427 9.12131 5.33989 9.6545 5.27193C9.7692 5.25731 9.8846 5.25 10 5.25C10.1154 5.25 10.2308 5.25731 10.3455 5.27193C10.8787 5.33989 11.3163 5.59426 11.7328 5.92869C12.1298 6.24753 12.573 6.69471 13.1043 7.23089L14.5327 8.67204C14.8243 8.96624 14.8222 9.44111 14.528 9.73269C14.2338 10.0243 13.7589 10.0222 13.4673 9.72796L12.0695 8.31758C11.4997 7.74268 11.1161 7.35733 10.7935 7.09823C10.7787 7.08635 10.7642 7.07487 10.75 7.06379V14Z" fill="#CB3A31"/>
</svg>
