<svg fill="none" height="21" viewBox="0 0 21 21" width="21" xmlns="http://www.w3.org/2000/svg"><g fill="#7f56d9"><path d="m16 11.4988c1.1046 0 2.0221.9062 1.7787 1.9836-.242 1.071-.6792 2.0942-1.2955 3.0165-.9889 1.4801-2.3945 2.6336-4.039 3.3148-1.6446.6812-3.45418.8594-5.20001.5122-1.74583-.3473-3.34947-1.2045-4.60815-2.4631-1.25867-1.2587-2.115837-2.8624-2.463103-4.6082-.347267-1.7458-.16903743-3.55541.512151-5.19995.681192-1.64453 1.834742-3.05014 3.314782-4.03907.92229-.61626 1.94555-1.05346 3.01653-1.29546 1.0774-.24346 1.9836.67411 1.9836 1.77868v2c0 2.76143 2.2386 5 5 5z"/><path d="m12 3.03307c0-1.95192 1.6408-3.596153 3.4442-2.849184 1.0919.452292 2.084 1.115224 2.9198 1.950954.8357.83573 1.4986 1.82788 1.9509 2.91981.747 1.80334-.8972 3.44415-2.8492 3.44415h-.9657c-2.4853 0-4.5-2.01472-4.5-4.5z"/></g></svg>