<svg width="36" height="36" viewBox="0 0 36 36" fill="none" xmlns="http://www.w3.org/2000/svg">
<rect width="36" height="36" rx="12" fill="#F7F7F7"/>
<path fill-rule="evenodd" clip-rule="evenodd" d="M18.0002 24.6667C21.6821 24.6667 24.6668 21.6819 24.6668 18C24.6668 14.3181 21.6821 11.3334 18.0002 11.3334C14.3183 11.3334 11.3335 14.3181 11.3335 18C11.3335 21.6819 14.3183 24.6667 18.0002 24.6667ZM18.5002 15.3334C18.5002 15.0572 18.2763 14.8334 18.0002 14.8334C17.724 14.8334 17.5002 15.0572 17.5002 15.3334V19.9575C17.4907 19.9501 17.481 19.9425 17.4712 19.9346C17.2561 19.7618 17.0004 19.5049 16.6205 19.1217L15.6886 18.1814C15.4942 17.9853 15.1777 17.9839 14.9815 18.1782C14.7854 18.3726 14.784 18.6892 14.9784 18.8853L15.9306 19.8461C16.2849 20.2036 16.5803 20.5017 16.845 20.7142C17.1226 20.9372 17.4144 21.1068 17.7698 21.1521C17.8463 21.1618 17.9232 21.1667 18.0002 21.1667C18.0771 21.1667 18.154 21.1618 18.2305 21.1521C18.586 21.1068 18.8777 20.9372 19.1553 20.7142C19.42 20.5017 19.7155 20.2036 20.0697 19.8461L21.022 18.8853C21.2163 18.6892 21.2149 18.3726 21.0188 18.1782C20.8227 17.9839 20.5061 17.9853 20.3117 18.1814L19.3798 19.1217C18.9999 19.5049 18.7443 19.7618 18.5292 19.9346C18.5193 19.9425 18.5096 19.9501 18.5002 19.9575V15.3334Z" fill="#43936C"/>
</svg>
