<svg width="35" height="35" viewBox="0 0 35 35" fill="none" xmlns="http://www.w3.org/2000/svg">
<path d="M1.41736 21.3571C1.41736 19.7091 1.73531 18.0773 2.35309 16.5548C2.97089 15.0323 3.87636 13.6489 5.01787 12.4836C6.15938 11.3183 7.51449 10.394 9.00592 9.76331C10.4974 9.13273 12.0959 8.80811 13.7103 8.80811V21.3571H1.41736Z" fill="#6941C6"/>
<path d="M1.41736 21.3574C1.41736 23.0054 1.73531 24.6372 2.35309 26.1598C2.97089 27.6823 3.87636 29.0657 5.01787 30.2309C6.15938 31.3962 7.51449 32.3206 9.00592 32.9512C10.4974 33.5819 12.0959 33.9065 13.7103 33.9065V21.3574H1.41736Z" fill="#B692F6"/>
<path d="M26.003 21.3574C26.003 23.0054 25.6853 24.6372 25.0676 26.1598C24.4498 27.6823 23.5444 29.0657 22.4027 30.2309C21.2612 31.3962 19.906 32.3206 18.4145 32.9512C16.9232 33.5819 15.3246 33.9065 13.7103 33.9065V21.3574H26.003Z" fill="#E9D7FE"/>
<path d="M33.5826 10.516C33.5826 15.7198 29.45 19.9383 24.3525 19.9383H15.1226V10.516C15.1226 5.31227 19.255 1.09375 24.3525 1.09375C29.45 1.09375 33.5826 5.31227 33.5826 10.516Z" fill="#42307D"/>
</svg>
