<svg width="20" height="20" viewBox="0 0 20 20" fill="none" xmlns="http://www.w3.org/2000/svg">
<path d="M8.77346 5.38947C8.5283 5.14648 8.13257 5.14824 7.88959 5.39341C7.6466 5.63857 7.64837 6.0343 7.89353 6.27728L9.36267 7.73337C9.95892 8.32432 10.3679 8.73102 10.6447 9.07563C10.9135 9.41037 11.0057 9.62539 11.0303 9.81795C11.0457 9.93887 11.0457 10.0612 11.0303 10.1821C11.0057 10.3747 10.9135 10.5897 10.6447 10.9245C10.3679 11.2691 9.95892 11.6758 9.36267 12.2667L7.89353 13.7228C7.64837 13.9658 7.6466 14.3615 7.88959 14.6067C8.13257 14.8518 8.5283 14.8536 8.77346 14.6106L10.2691 13.1283C10.8324 12.57 11.2928 12.1137 11.6193 11.7072C11.9588 11.2844 12.2046 10.8553 12.2702 10.3402C12.299 10.1143 12.299 9.88576 12.2702 9.65991C12.2046 9.14481 11.9588 8.71569 11.6193 8.29292C11.2928 7.88636 10.8324 7.43007 10.2691 6.87179L8.77346 5.38947Z" fill="#101828"/>
</svg>
