<svg width="69" height="68" viewBox="0 0 69 68" fill="none" xmlns="http://www.w3.org/2000/svg">
<rect x="1.1665" y="0.5" width="67" height="67" rx="11.5" fill="#F9F5FF"/>
<path fill-rule="evenodd" clip-rule="evenodd" d="M34.7344 19.375C37.4892 19.375 39.6486 19.375 41.3618 19.5606C43.1101 19.75 44.5267 20.1435 45.7362 21.0222C46.4684 21.5542 47.1123 22.1981 47.6443 22.9304C48.523 24.1398 48.9165 25.5564 49.1059 27.3047C49.2915 29.0179 49.2915 31.1774 49.2915 33.9321V34.068C49.2915 36.8228 49.2915 38.9821 49.1059 40.6953C48.9165 42.4436 48.523 43.8602 47.6443 45.0696C47.1123 45.8019 46.4684 46.4458 45.7362 46.9778C44.5267 47.8565 43.1101 48.25 41.3618 48.4394C39.6486 48.625 37.4891 48.625 34.7344 48.625H34.5985C31.8438 48.625 29.6844 48.625 27.9712 48.4394C26.2229 48.25 24.8063 47.8565 23.5969 46.9778C22.8646 46.4458 22.2207 45.8019 21.6887 45.0696C20.81 43.8602 20.4165 42.4436 20.2271 40.6953C20.0415 38.9821 20.0415 36.8227 20.0415 34.0679V33.9321C20.0415 31.1773 20.0415 29.0179 20.2271 27.3047C20.4165 25.5564 20.81 24.1398 21.6887 22.9304C22.2207 22.1981 22.8646 21.5542 23.5969 21.0222C24.8063 20.1435 26.2229 19.75 27.9712 19.5606C29.6844 19.375 31.8438 19.375 34.5986 19.375H34.7344ZM35.7915 26.5C35.7915 25.8787 35.2878 25.375 34.6665 25.375C34.0452 25.375 33.5415 25.8787 33.5415 26.5V41.5C33.5415 42.1213 34.0452 42.625 34.6665 42.625C35.2878 42.625 35.7915 42.1213 35.7915 41.5V26.5ZM41.7915 32.5C41.7915 31.8787 41.2878 31.375 40.6665 31.375C40.0452 31.375 39.5415 31.8787 39.5415 32.5V41.5C39.5415 42.1213 40.0452 42.625 40.6665 42.625C41.2878 42.625 41.7915 42.1213 41.7915 41.5V32.5ZM29.7915 35.5C29.7915 34.8787 29.2878 34.375 28.6665 34.375C28.0452 34.375 27.5415 34.8787 27.5415 35.5V41.5C27.5415 42.1213 28.0452 42.625 28.6665 42.625C29.2878 42.625 29.7915 42.1213 29.7915 41.5V35.5Z" fill="#7F56D9"/>
<rect x="1.1665" y="0.5" width="67" height="67" rx="11.5" stroke="#D6BBFB"/>
</svg>
