<svg width="41" height="40" viewBox="0 0 41 40" fill="none" xmlns="http://www.w3.org/2000/svg">
<rect x="0.5" width="40" height="40" rx="20" fill="#F2F4F7"/>
<path d="M19.028 14.4673C18.7338 14.1757 18.2589 14.1778 17.9673 14.472C17.6757 14.7662 17.6778 15.2411 17.972 15.5327L19.735 17.28C20.4505 17.9891 20.9413 18.4772 21.2734 18.8907C21.596 19.2924 21.7067 19.5504 21.7361 19.7815C21.7546 19.9266 21.7546 20.0734 21.7361 20.2185C21.7067 20.4496 21.596 20.7076 21.2734 21.1093C20.9413 21.5228 20.4505 22.0109 19.735 22.72L17.972 24.4673C17.6778 24.7589 17.6757 25.2338 17.9673 25.528C18.2589 25.8222 18.7338 25.8243 19.028 25.5327L20.8227 23.7539C21.4987 23.084 22.0511 22.5364 22.4429 22.0485C22.8504 21.5412 23.1453 21.0263 23.2241 20.4082C23.2586 20.1371 23.2586 19.8629 23.2241 19.5918C23.1453 18.9737 22.8504 18.4588 22.4429 17.9515C22.0511 17.4636 21.4987 16.916 20.8227 16.2461L19.028 14.4673Z" fill="#101828"/>
</svg>
