<svg width="68" height="68" viewBox="0 0 68 68" fill="none" xmlns="http://www.w3.org/2000/svg">
<rect x="0.5" y="0.5" width="67" height="67" rx="11.5" fill="#F7F7F7"/>
<path fill-rule="evenodd" clip-rule="evenodd" d="M23 19C20.7909 19 19 20.7909 19 23V45C19 47.2091 20.7909 49 23 49H45C47.2091 49 49 47.2091 49 45V23C49 20.7909 47.2091 19 45 19H23ZM42.2492 25.0938C42.3985 25.1558 42.5341 25.2466 42.6483 25.361C43.1172 25.83 43.1172 26.62 42.6483 27.0891L29.2084 40.5313H36.1073C36.7861 40.5313 37.3414 41.0867 37.3414 41.7656C37.3414 42.4445 36.7861 43 36.1073 43H26.2341C25.5554 43 25 42.4445 25 41.7656V31.8908C25 31.2119 25.5554 30.6564 26.2341 30.6564C26.9129 30.6564 27.4683 31.2119 27.4683 31.8908V38.7908L40.9081 25.361C41.0223 25.2466 41.1579 25.1558 41.3072 25.0938C41.4565 25.0319 41.6166 25 41.7782 25C41.9398 25 42.0999 25.0319 42.2492 25.0938Z" fill="#43936C"/>
<rect x="0.5" y="0.5" width="67" height="67" rx="11.5" stroke="#B8DBCA"/>
</svg>
