<svg width="56" height="56" viewBox="0 0 56 56" fill="none" xmlns="http://www.w3.org/2000/svg">
<rect x="0.5" y="0.5" width="55" height="55" rx="11.5" fill="#F7F7F7"/>
<path fill-rule="evenodd" clip-rule="evenodd" d="M22 18C19.7909 18 18 19.7909 18 22V34C18 36.2091 19.7909 38 22 38H34C36.2091 38 38 36.2091 38 34V22C38 19.7909 36.2091 18 34 18H22ZM33.4995 22.0626C33.599 22.1038 33.6894 22.1644 33.7655 22.2407C34.0782 22.5534 34.0782 23.08 33.7655 23.3927L24.8056 32.3542H29.4049C29.8574 32.3542 30.2276 32.7245 30.2276 33.1771C30.2276 33.6297 29.8574 34 29.4049 34H22.8228C22.3702 34 22 33.6297 22 33.1771V26.5938C22 26.1412 22.3702 25.7709 22.8228 25.7709C23.2753 25.7709 23.6455 26.1412 23.6455 26.5938V31.1939L32.6054 22.2407C32.6815 22.1644 32.7719 22.1038 32.8715 22.0626C32.971 22.0213 33.0777 22 33.1855 22C33.2932 22 33.3999 22.0213 33.4995 22.0626Z" fill="#43936C"/>
<rect x="0.5" y="0.5" width="55" height="55" rx="11.5" stroke="#B8DBCA"/>
</svg>
