<svg width="56" height="56" viewBox="0 0 56 56" fill="none" xmlns="http://www.w3.org/2000/svg">
<rect x="0.5" y="0.5" width="55" height="55" rx="11.5" fill="#FFF4F2"/>
<path fill-rule="evenodd" clip-rule="evenodd" d="M22 18C19.7909 18 18 19.7909 18 22V34C18 36.2091 19.7909 38 22 38H34C36.2091 38 38 36.2091 38 34V22C38 19.7909 36.2091 18 34 18H22ZM26.5989 23.6447C26.1467 23.6447 25.7766 23.2829 25.7766 22.8223C25.7766 22.3701 26.1467 22 26.5989 22H33.1777C33.6299 22 34 22.3701 34 22.8223V29.4011C34 29.8533 33.6299 30.2234 33.1777 30.2234C32.7254 30.2234 32.3553 29.8533 32.3553 29.4011V24.8042L23.4 33.7595C23.0793 34.0802 22.5612 34.0802 22.2405 33.7595C21.9198 33.4388 21.9198 32.9207 22.2405 32.6L31.1958 23.6447H26.5989Z" fill="#CB3A31"/>
<rect x="0.5" y="0.5" width="55" height="55" rx="11.5" stroke="#EEB4B0"/>
</svg>
