<svg width="16" height="16" viewBox="0 0 16 16" fill="none" xmlns="http://www.w3.org/2000/svg">
<path fill-rule="evenodd" clip-rule="evenodd" d="M12.1698 9.77639L12.3446 8.5197C12.3985 8.13305 12.4476 7.77958 12.4914 7.45533C12.5812 6.78899 12.6262 6.45582 12.4269 6.22793C12.2277 6.00004 11.8853 6.00004 11.2005 6.00004H4.7992C4.11438 6.00004 3.77198 6.00004 3.57275 6.22793C3.37353 6.45582 3.41846 6.78899 3.50832 7.45533C3.55206 7.77967 3.60122 8.13291 3.65504 8.5197L3.82994 9.77639C4.02001 11.1422 4.11505 11.8251 4.31657 12.3736C4.6934 13.3992 5.34479 14.1632 6.12228 14.4913C6.53804 14.6667 7.02531 14.6667 7.99984 14.6667C8.97437 14.6667 9.46165 14.6667 9.87741 14.4913C10.6549 14.1632 11.3063 13.3992 11.6831 12.3736C11.8846 11.8251 11.9797 11.1422 12.1698 9.77639ZM7.1665 7.33337C7.1665 7.05723 6.94265 6.83337 6.6665 6.83337C6.39036 6.83337 6.1665 7.05723 6.1665 7.33337V12.6667C6.1665 12.9428 6.39036 13.1667 6.6665 13.1667C6.94265 13.1667 7.1665 12.9428 7.1665 12.6667V7.33337ZM9.83317 7.33337C9.83317 7.05723 9.60931 6.83337 9.33317 6.83337C9.05703 6.83337 8.83317 7.05723 8.83317 7.33337V12.6667C8.83317 12.9428 9.05703 13.1667 9.33317 13.1667C9.60931 13.1667 9.83317 12.9428 9.83317 12.6667V7.33337Z" fill="#667085"/>
<path d="M7.99984 0.833374C6.25094 0.833374 4.83317 2.25114 4.83317 4.00004V4.16671H2.6665C2.39036 4.16671 2.1665 4.39057 2.1665 4.66671C2.1665 4.94285 2.39036 5.16671 2.6665 5.16671H13.3332C13.6093 5.16671 13.8332 4.94285 13.8332 4.66671C13.8332 4.39057 13.6093 4.16671 13.3332 4.16671H11.1665V4.00004C11.1665 2.25114 9.74874 0.833374 7.99984 0.833374Z" fill="#667085"/>
</svg>
